<?xml version="1.0" standalone="no"?>
<!DOCTYPE svg PUBLIC "-//W3C//DTD SVG 20010904//EN"
 "http://www.w3.org/TR/2001/REC-SVG-20010904/DTD/svg10.dtd">
<svg version="1.0" xmlns="http://www.w3.org/2000/svg"
 width="700.000000pt" height="700.000000pt" viewBox="0 0 700.000000 700.000000"
 preserveAspectRatio="xMidYMid meet">
<metadata>
Created by potrace 1.11, written by Peter Selinger 2001-2013
</metadata>
<g transform="translate(0.000000,700.000000) scale(0.100000,-0.100000)"
fill="#000000" stroke="none">
<path d="M3278 6995 c-2 -1 -39 -5 -83 -9 -89 -7 -144 -13 -225 -26 -30 -5
-75 -12 -100 -16 -47 -6 -50 -7 -90 -17 -14 -4 -74 -18 -135 -33 -316 -74
-706 -240 -1000 -425 -914 -574 -1515 -1537 -1629 -2604 -15 -143 -18 -569 -5
-680 4 -38 11 -90 13 -115 35 -299 128 -648 248 -930 149 -350 368 -697 613
-970 69 -78 258 -263 320 -315 33 -27 67 -56 75 -64 36 -35 248 -187 348 -251
458 -290 1017 -481 1552 -528 149 -14 532 -11 680 4 1013 104 1939 653 2523
1496 193 279 360 621 461 948 33 108 86 321 100 400 45 273 51 346 51 660 0
287 -11 406 -60 655 -159 801 -571 1492 -1205 2023 -66 56 -304 230 -351 257
-235 137 -500 275 -527 275 -4 0 -26 8 -48 19 -96 46 -391 136 -562 172 -54
11 -106 22 -117 25 -11 2 -38 6 -60 9 -22 3 -51 7 -65 10 -13 2 -52 7 -86 11
-33 3 -74 8 -90 10 -32 5 -540 14 -546 9z"/>
</g>
</svg>
